<svg version="1" xmlns="http://www.w3.org/2000/svg" width="308" height="308" viewBox="0 0 231.000000 231.000000"><path d="M102.3 6.1C95.8 14.8 87.9 32.2 90 33.5c1.8 1.1 7.8 11.3 9.8 16.5 1.2 3 2.1 4.8 2.2 4 .1-.8.3-3.1.5-5 1.1-9.1 1.5-13 2.1-19.9.5-5 1-6.8 1.4-5.5.9 2.4 2.3 18.9 2.5 29.9.1 4.4.3 8.4.3 8.9.4 2 7.2-5.9 9.2-10.7 4.3-10 1.5-24.8-8.4-44.4L106.3.7l-4 5.4zM30.9 21.4c-.2.2-2.7.7-5.5 1.1C15.2 23.7-2.4 28.9 3 29c4 0 15.7 8.4 23 16.4 4.2 4.6 6.1 7.4 12.5 18.2 13 22.2 29.8 29.9 45.3 20.8 2.3-1.4 4.2-2.8 4.2-3.2 0-1-10.5-17.8-12.3-19.7-.6-.7-3-3.5-5.1-6.2-8.4-10.2-20.1-17.9-31.9-20.9L33.5 33l9 .4c19.5.9 34.4 10 49 29.9 5.8 7.9 6.5 7.4 6-4.3-.3-9.7-2.9-15.6-9.8-22.5-10.3-10.2-22.8-14.6-43.3-15.2-7.2-.2-13.2-.1-13.5.1zM141.5 58.2c-30.1 3.4-55.4 27.2-60 56.3-.9 6-.7 19.3.4 25 4.2 21.8 20.5 40.8 42.1 49.3 9.6 3.7 14.2 4.6 26.7 4.8 25.4.5 43.8-8.1 56.5-26.4 8.7-12.5 13.1-35.5 8.3-42.8-3.8-5.8-4.3-5.9-36.8-6-33.1-.1-34.2.1-38.3 6.3-3.8 5.7-1.7 13.8 4.4 18 2.4 1.5 5.1 1.8 21.9 1.8 12.2 0 19.3.4 19.3 1 0 1.9-4.2 7.9-7.8 11.2-7.5 6.6-24.2 9.7-37.1 6.8-12.6-3-21.8-10.2-26.9-21.3-3.2-7-4-20-1.7-27.7C117.6 97.7 132.1 87 150 87c13.7 0 25.5 5.6 32 15 4.7 7 7.9 9 14 9 8.7 0 14.1-5 14.8-13.5.4-4.3 0-5.9-2.2-9.4-13.4-21.1-39.9-32.9-67.1-29.9z"/></svg>